<svg id="visual" viewBox="0 0 900 600" width="900" height="600" xmlns="http://www.w3.org/2000/svg" xmlns:xlink="http://www.w3.org/1999/xlink" version="1.1"><rect x="0" y="0" width="900" height="600" fill="#db2256"></rect><defs><linearGradient id="grad1_0" x1="33.3%" y1="100%" x2="100%" y2="0%"><stop offset="20%" stop-color="#db2256" stop-opacity="1"></stop><stop offset="80%" stop-color="#db2256" stop-opacity="1"></stop></linearGradient></defs><defs><linearGradient id="grad2_0" x1="0%" y1="100%" x2="66.7%" y2="0%"><stop offset="20%" stop-color="#db2256" stop-opacity="1"></stop><stop offset="80%" stop-color="#db2256" stop-opacity="1"></stop></linearGradient></defs><g transform="translate(900, 600)"><path d="M-459.7 0C-437.7 -23.9 -415.7 -47.8 -382.2 -60.5C-348.8 -73.3 -303.8 -74.9 -316.7 -102.9C-329.6 -130.9 -400.3 -185.1 -398.3 -202.9C-396.3 -220.7 -321.5 -202 -303.4 -220.4C-285.2 -238.8 -323.6 -294.3 -325.1 -325.1C-326.5 -355.8 -291 -361.9 -254.5 -350.3C-218 -338.7 -180.4 -309.6 -157.1 -308.3C-133.7 -307 -124.6 -333.7 -109.1 -335.7C-93.6 -337.8 -71.8 -315.3 -52.6 -331.9C-33.3 -348.4 -16.7 -404.1 0 -459.7L0 0Z" fill="#0b8fc5"></path></g><g transform="translate(0, 0)"><path d="M459.7 0C422.4 20.1 385.1 40.2 359.5 56.9C334 73.7 320.2 87.1 313.8 102C307.5 116.8 308.7 133.1 326.1 166.2C343.6 199.2 377.3 248.9 371.9 270.2C366.5 291.5 321.8 284.3 299.1 299.1C276.4 313.9 275.6 350.8 249.2 343C222.8 335.2 170.7 282.8 150.3 294.9C129.8 307 141.1 383.6 129.5 398.5C117.9 413.4 83.4 366.5 58 366.4C32.7 366.3 16.3 413 0 459.7L0 0Z" fill="#0b8fc5"></path></g></svg>